<?xml version="1.0" encoding="UTF-8"?>
<svg xmlns="http://www.w3.org/2000/svg" xmlns:xlink="http://www.w3.org/1999/xlink" width="151.766" height="50.212" viewBox="0 0 151.766 50.212">
<defs>
<g>
<g id="glyph-0-0">
<path d="M 2.890625 -6.28125 C 2.890625 -6.515625 2.890625 -6.53125 2.65625 -6.53125 C 2.046875 -5.90625 1.1875 -5.90625 0.875 -5.90625 L 0.875 -5.609375 C 1.0625 -5.609375 1.65625 -5.609375 2.15625 -5.859375 L 2.15625 -0.78125 C 2.15625 -0.421875 2.125 -0.296875 1.25 -0.296875 L 0.9375 -0.296875 L 0.9375 0 C 1.28125 -0.03125 2.125 -0.03125 2.515625 -0.03125 C 2.921875 -0.03125 3.765625 -0.03125 4.109375 0 L 4.109375 -0.296875 L 3.796875 -0.296875 C 2.921875 -0.296875 2.890625 -0.40625 2.890625 -0.78125 Z M 2.890625 -6.28125 "/>
</g>
<g id="glyph-0-1">
<path d="M 4.515625 -3.140625 C 4.515625 -3.921875 4.46875 -4.703125 4.125 -5.4375 C 3.671875 -6.375 2.859375 -6.53125 2.453125 -6.53125 C 1.859375 -6.53125 1.140625 -6.28125 0.75 -5.375 C 0.4375 -4.6875 0.375 -3.921875 0.375 -3.140625 C 0.375 -2.40625 0.421875 -1.515625 0.828125 -0.78125 C 1.25 0.015625 1.96875 0.21875 2.4375 0.21875 C 2.96875 0.21875 3.71875 0.015625 4.15625 -0.921875 C 4.46875 -1.59375 4.515625 -2.359375 4.515625 -3.140625 Z M 2.4375 0 C 2.0625 0 1.484375 -0.25 1.3125 -1.1875 C 1.203125 -1.78125 1.203125 -2.671875 1.203125 -3.25 C 1.203125 -3.890625 1.203125 -4.53125 1.28125 -5.0625 C 1.46875 -6.234375 2.203125 -6.3125 2.4375 -6.3125 C 2.765625 -6.3125 3.421875 -6.140625 3.59375 -5.171875 C 3.703125 -4.625 3.703125 -3.875 3.703125 -3.25 C 3.703125 -2.515625 3.703125 -1.859375 3.59375 -1.234375 C 3.4375 -0.296875 2.890625 0 2.4375 0 Z M 2.4375 0 "/>
</g>
</g>
<clipPath id="clip-0">
<path clip-rule="nonzero" d="M 25 18 L 72 18 L 72 49.4375 L 25 49.4375 Z M 25 18 "/>
</clipPath>
<clipPath id="clip-1">
<path clip-rule="nonzero" d="M 55 8 L 102 8 L 102 49.4375 L 55 49.4375 Z M 55 8 "/>
</clipPath>
<clipPath id="clip-2">
<path clip-rule="nonzero" d="M 25 8 L 72 8 L 72 49.4375 L 25 49.4375 Z M 25 8 "/>
</clipPath>
</defs>
<path fill="none" stroke-width="1.49442" stroke-linecap="butt" stroke-linejoin="miter" stroke="rgb(0%, 0%, 100%)" stroke-opacity="1" stroke-miterlimit="10" d="M 8.92739 8.930925 L 144.141582 8.930925 " transform="matrix(0.984549, 0, 0, -0.984549, 5.866796, 49.835902)"/>
<path fill="none" stroke-width="1.49442" stroke-linecap="butt" stroke-linejoin="miter" stroke="rgb(0%, 0%, 100%)" stroke-opacity="1" stroke-miterlimit="10" d="M 8.92739 42.095697 L 144.141582 42.095697 " transform="matrix(0.984549, 0, 0, -0.984549, 5.866796, 49.835902)"/>
<g fill="rgb(0%, 0%, 0%)" fill-opacity="1">
<use xlink:href="#glyph-0-0" x="6.288183" y="11.552698"/>
</g>
<g fill="rgb(0%, 0%, 0%)" fill-opacity="1">
<use xlink:href="#glyph-0-1" x="6.288183" y="44.205266"/>
</g>
<path fill="none" stroke-width="1.49442" stroke-linecap="butt" stroke-linejoin="miter" stroke="rgb(100%, 0%, 0%)" stroke-opacity="1" stroke-miterlimit="10" d="M 8.92739 8.930925 L 43.369714 8.930925 " transform="matrix(0.984549, 0, 0, -0.984549, 5.866796, 49.835902)"/>
<path fill="none" stroke-width="1.49442" stroke-linecap="butt" stroke-linejoin="miter" stroke="rgb(100%, 0%, 0%)" stroke-opacity="1" stroke-miterlimit="10" d="M 43.369714 18.496694 L 73.98335 18.496694 " transform="matrix(0.984549, 0, 0, -0.984549, 5.866796, 49.835902)"/>
<path fill="none" stroke-width="1.49442" stroke-linecap="butt" stroke-linejoin="miter" stroke="rgb(100%, 0%, 0%)" stroke-opacity="1" stroke-miterlimit="10" d="M 73.98335 28.70124 L 122.458907 28.70124 " transform="matrix(0.984549, 0, 0, -0.984549, 5.866796, 49.835902)"/>
<path fill="none" stroke-width="1.49442" stroke-linecap="butt" stroke-linejoin="miter" stroke="rgb(100%, 0%, 0%)" stroke-opacity="1" stroke-miterlimit="10" d="M 122.458907 42.095697 L 144.141582 42.095697 " transform="matrix(0.984549, 0, 0, -0.984549, 5.866796, 49.835902)"/>
<path fill-rule="nonzero" fill="rgb(100%, 100%, 100%)" fill-opacity="1" d="M 50.578125 41.042969 C 50.578125 39.933594 49.675781 39.035156 48.566406 39.035156 C 47.457031 39.035156 46.558594 39.933594 46.558594 41.042969 C 46.558594 42.15625 47.457031 43.054688 48.566406 43.054688 C 49.675781 43.054688 50.578125 42.15625 50.578125 41.042969 Z M 50.578125 41.042969 "/>
<g clip-path="url(#clip-0)">
<path fill="none" stroke-width="1.49442" stroke-linecap="butt" stroke-linejoin="miter" stroke="rgb(100%, 0%, 0%)" stroke-opacity="1" stroke-miterlimit="10" d="M 45.413004 8.930925 C 45.413004 10.05771 44.496499 10.970247 43.369714 10.970247 C 42.242929 10.970247 41.330392 10.05771 41.330392 8.930925 C 41.330392 7.800173 42.242929 6.887635 43.369714 6.887635 C 44.496499 6.887635 45.413004 7.800173 45.413004 8.930925 Z M 45.413004 8.930925 " transform="matrix(0.984549, 0, 0, -0.984549, 5.866796, 49.835902)"/>
</g>
<path fill-rule="nonzero" fill="rgb(100%, 100%, 100%)" fill-opacity="1" d="M 80.71875 31.625 C 80.71875 30.515625 79.816406 29.617188 78.707031 29.617188 C 77.597656 29.617188 76.699219 30.515625 76.699219 31.625 C 76.699219 32.734375 77.597656 33.636719 78.707031 33.636719 C 79.816406 33.636719 80.71875 32.734375 80.71875 31.625 Z M 80.71875 31.625 "/>
<g clip-path="url(#clip-1)">
<path fill="none" stroke-width="1.49442" stroke-linecap="butt" stroke-linejoin="miter" stroke="rgb(100%, 0%, 0%)" stroke-opacity="1" stroke-miterlimit="10" d="M 76.02664 18.496694 C 76.02664 19.623479 75.110135 20.536016 73.98335 20.536016 C 72.856565 20.536016 71.944028 19.623479 71.944028 18.496694 C 71.944028 17.369909 72.856565 16.453405 73.98335 16.453405 C 75.110135 16.453405 76.02664 17.369909 76.02664 18.496694 Z M 76.02664 18.496694 " transform="matrix(0.984549, 0, 0, -0.984549, 5.866796, 49.835902)"/>
</g>
<path fill-rule="nonzero" fill="rgb(100%, 100%, 100%)" fill-opacity="1" stroke-width="1.49442" stroke-linecap="butt" stroke-linejoin="miter" stroke="rgb(100%, 0%, 0%)" stroke-opacity="1" stroke-miterlimit="10" d="M 124.498229 28.70124 C 124.498229 29.828024 123.585692 30.740562 122.458907 30.740562 C 121.332123 30.740562 120.415618 29.828024 120.415618 28.70124 C 120.415618 27.574455 121.332123 26.661918 122.458907 26.661918 C 123.585692 26.661918 124.498229 27.574455 124.498229 28.70124 Z M 124.498229 28.70124 " transform="matrix(0.984549, 0, 0, -0.984549, 5.866796, 49.835902)"/>
<path fill-rule="nonzero" fill="rgb(100%, 0%, 0%)" fill-opacity="1" d="M 50.578125 31.625 C 50.578125 30.515625 49.675781 29.617188 48.566406 29.617188 C 47.457031 29.617188 46.558594 30.515625 46.558594 31.625 C 46.558594 32.734375 47.457031 33.636719 48.566406 33.636719 C 49.675781 33.636719 50.578125 32.734375 50.578125 31.625 Z M 50.578125 31.625 "/>
<g clip-path="url(#clip-2)">
<path fill="none" stroke-width="1.49442" stroke-linecap="butt" stroke-linejoin="miter" stroke="rgb(100%, 0%, 0%)" stroke-opacity="1" stroke-miterlimit="10" d="M 45.413004 18.496694 C 45.413004 19.623479 44.496499 20.536016 43.369714 20.536016 C 42.242929 20.536016 41.330392 19.623479 41.330392 18.496694 C 41.330392 17.369909 42.242929 16.453405 43.369714 16.453405 C 44.496499 16.453405 45.413004 17.369909 45.413004 18.496694 Z M 45.413004 18.496694 " transform="matrix(0.984549, 0, 0, -0.984549, 5.866796, 49.835902)"/>
</g>
<path fill-rule="nonzero" fill="rgb(100%, 0%, 0%)" fill-opacity="1" stroke-width="1.49442" stroke-linecap="butt" stroke-linejoin="miter" stroke="rgb(100%, 0%, 0%)" stroke-opacity="1" stroke-miterlimit="10" d="M 76.02664 28.70124 C 76.02664 29.828024 75.110135 30.740562 73.98335 30.740562 C 72.856565 30.740562 71.944028 29.828024 71.944028 28.70124 C 71.944028 27.574455 72.856565 26.661918 73.98335 26.661918 C 75.110135 26.661918 76.02664 27.574455 76.02664 28.70124 Z M 76.02664 28.70124 " transform="matrix(0.984549, 0, 0, -0.984549, 5.866796, 49.835902)"/>
<path fill-rule="nonzero" fill="rgb(100%, 0%, 0%)" fill-opacity="1" stroke-width="1.49442" stroke-linecap="butt" stroke-linejoin="miter" stroke="rgb(100%, 0%, 0%)" stroke-opacity="1" stroke-miterlimit="10" d="M 124.498229 42.095697 C 124.498229 43.222482 123.585692 44.135019 122.458907 44.135019 C 121.332123 44.135019 120.415618 43.222482 120.415618 42.095697 C 120.415618 40.968912 121.332123 40.052407 122.458907 40.052407 C 123.585692 40.052407 124.498229 40.968912 124.498229 42.095697 Z M 124.498229 42.095697 " transform="matrix(0.984549, 0, 0, -0.984549, 5.866796, 49.835902)"/>
</svg>
